# AST/ASF file generated using VICON BodyLanguage
# -----------------------------------------------
:version 1.10
:name VICON
:units
  mass 1.0
  length 0.45
  angle deg
:documentation
   .ast/.asf automatically generated from VICON data using
   VICON BodyBuilder and BodyLanguage model FoxedUp or BRILLIANT.MOD
:root
   order TX TY TZ RX RY RZ
   axis XYZ
   position 0 0 0  
   orientation 0 0 0 
:bonedata
  begin
     id 1 
     name lhipjoint
     direction 0.547975 -0.797114 0.253638 
     length 2.36201 
     axis 0 0 0  XYZ
  end
  begin
     id 2 
     name lfemur
     direction 0.34202 -0.939693 0  
     length 7.69075  
     axis 0 0 20  XYZ
    dof rx ry rz
    limits (-160.0 20.0)
           (-70.0 70.0)
           (-60.0 70.0)
  end
  begin
     id 3 
     name ltibia
     direction 0.34202 -0.939693 0   
     length 7.91399   
     axis 0 0 20   XYZ
    dof rx
    limits (-10.0 170.0)
  end
  begin
     id 4 
     name lfoot
     direction 0.0705293 -0.193778 0.978507   
     length 2.13618   
     axis -90 7.62852e-016 20   XYZ
    dof rx rz
    limits (-45.0 90.0)
           (-70.0 20.0)
  end
  begin
     id 5 
     name ltoes
     direction 1.53592e-011 -4.21925e-011 1   
     length 1.07518   
     axis -90 7.62852e-016 20   XYZ
    dof rx
    limits (-90.0 20.0)
  end
  begin
     id 6 
     name rhipjoint
     direction -0.57 -0.782963 0.249136   
     length 2.4047  
     axis 0 0 0  XYZ 
  end
  begin
     id 7 
     name rfemur
     direction -0.34202 -0.939693 0   
     length 7.51486   
     axis 0 0 -20   XYZ
    dof rx ry rz
    limits (-160.0 20.0)
           (-70.0 70.0)
           (-70.0 60.0)
  end
  begin
     id 8 
     name rtibia
     direction -0.34202 -0.939693 0   
     length 8.08317   
     axis 0 0 -20   XYZ
    dof rx
    limits (-10.0 170.0)
 end
 begin
     id 9 
     name rfoot
     direction -0.104954 -0.281256 0.953876   
     length 2.30343  
     axis -90 -7.62852e-016 -20   XYZ
    dof rx rz
    limits (-45.0 90.0)
           (-20.0 70.0)
  end
  begin
     id 10 
     name rtoes
     direction -1.53556e-011 -4.21922e-011 1   
     length 1.14803   
     axis -90 -7.62852e-016 -20   XYZ
    dof rx
    limits (-90.0 20.0)
  end
  begin
     id 11 
     name lowerback
     direction -0.0152855 0.99353 -0.11254   
     length 2.05311   
     axis 0 0 0   XYZ
    dof rx ry rz
    limits (-20.0 45.0)
           (-30.0 30.0)
           (-30.0 30.0)
  end
  begin
     id 12 
     name upperback
     direction -0.00157509 0.999443 -0.033332   
     length 2.06353   
     axis 0 0 0   XYZ
    dof rx ry rz
    limits (-20.0 45.0)
           (-30.0 30.0)
           (-30.0 30.0)
  end
  begin
     id 13 
     name thorax
     direction 0.00577788 0.999804 0.0189484   
     length 2.08472   
     axis 0 0 0   XYZ
    dof rx ry rz
    limits (-20.0 45.0)
           (-30.0 30.0)
           (-30.0 30.0)
  end
  begin
     id 14 
     name lowerneck
     direction -1.09301e-005 0.994719 0.10264   
     length 1.76249   
     axis 0 0 0   XYZ
    dof rx ry rz
    limits (-20.0 45.0)
           (-30.0 30.0)
           (-30.0 30.0)
  end
  begin
     id 15 
     name upperneck
     direction 0.0495018 0.988526 -0.142706   
     length 1.77897   
     axis 0 0 0   XYZ
    dof rx ry rz
    limits (-20.0 45.0)
           (-30.0 30.0)
           (-30.0 30.0)
  end
  begin
     id 16
     name head
     direction 0.0142736 0.998114 -0.0597101  
     length 1.78934  
     axis 0 0 0   XYZ
    dof rx ry rz
    limits (-20.0 45.0)
           (-30.0 30.0)
           (-30.0 30.0)
  end
  begin
     id 17 
     name lclavicle
     direction 0.918111 0.396107 -0.0130883  
     length 3.37276  
     axis 0 0 0   XYZ
    dof ry rz
    limits (-20.0 10.0)
           (0.0 20.0)
  end
  begin
     id 18 
     name lhumerus
     direction 1 -4.48975e-011 -3.26108e-027   
     length 5.34298   
     axis 180 -30 -90   XYZ
    dof rx ry rz
    limits (-60.0 90.0)
           (-90.0 90.0)
           (-90.0 90.0)
  end
  begin
     id 19
     name lradius
     direction 1 -4.48964e-011 -8.84413e-028   
     length 3.67262   
     axis 180 -30 -90   XYZ
    dof rx
    limits (-10.0 170.0)
  end
  begin
     id 20
     name lwrist
     direction 1 -4.48991e-011 -1.24264e-027   
     length 1.83631   
     axis -2.17013e-015 90 90   XYZ
    dof ry
    limits (-180.0 0.0)
 end
  begin
     id 21 
     name lhand
     direction 1 -4.48855e-011 -2.48528e-027   
     length 0.599298   
     axis 1.58582e-015 90 90   XYZ
    dof rx rz
    limits (-90.0 90.0)
           (-45.0 45.0)
  end
  begin
     id 22 
     name lfingers
     direction 1 -4.48811e-011 -4.97056e-027   
     length 0.48317   
     axis 3.17164e-015 90 90   XYZ
    dof rx
    limits (0.0 90.0)
  end
  begin
     id 23
     name lthumb
     direction 0.707107 -6.34882e-011 0.707107   
     length 0.693738   
     axis -90 45 2.85299e-015   XYZ
    dof rx rz
    limits (-45.0 45.0)
           (-45.0 45.0)
  end
  begin
     id 24 
     name rclavicle
     direction -0.920511 0.384752 -0.0680135   
     length 3.43787  
     axis 0 0 0   XYZ 
    dof ry rz
    limits (-10.0 20.0)
           (-20.0 0.0)
  end
  begin
     id 25 
     name rhumerus
     direction -0.999976 -0.00330524 0.00603274  
     length 5.5498   
     axis 180 30 90   XYZ
    dof rx ry rz
    limits (-90.0 60.0)
           (-90.0 90.0)
           (-90.0 90.0)
  end
  begin
     id 26 
     name rradius
     direction -1 -4.48967e-011 8.62438e-027   
     length 3.69401   
     axis 180 30 90   XYZ
    dof rx
    limits (-10.0 170.0)
  end
  begin
     id 27 
     name rwrist
     direction -1 -4.4897e-011 9.54866e-027   
     length 1.84701   
     axis -7.69462e-015 -90 -90   XYZ
    dof ry
    limits (-180.0 0.0)
  end
  begin
     id 28
     name rhand
     direction -1 -4.48982e-011 1.90973e-026   
     length 0.638113   
     axis -1.21857e-014 -90 -90   XYZ
    dof rx rz
    limits (-90.0 90.0)
           (-45.0 45.0)
  end
  begin
     id 29
     name rfingers
     direction -1 -4.48936e-011 3.81946e-026   
     length 0.514463   
     axis -2.43714e-014 -90 -90   XYZ
    dof rx
    limits (0.0 90.0)
  end
  begin
     id 30
     name rthumb
     direction -0.707107 -6.34942e-011 0.707107   
     length 0.738669   
     axis -90 -45 -2.85299e-015   XYZ
    dof rx rz
    limits (-45.0 45.0)
           (-45.0 45.0)
  end
:hierarchy
  begin
    root lhipjoint rhipjoint lowerback
    lhipjoint lfemur
    lfemur ltibia
    ltibia lfoot
    lfoot ltoes
    rhipjoint rfemur
    rfemur rtibia
    rtibia rfoot
    rfoot rtoes
    lowerback upperback
    upperback thorax
    thorax lowerneck lclavicle rclavicle
    lowerneck upperneck
    upperneck head
    lclavicle lhumerus
    lhumerus lradius
    lradius lwrist
    lwrist lhand lthumb
    lhand lfingers
    rclavicle rhumerus
    rhumerus rradius
    rradius rwrist
    rwrist rhand rthumb
    rhand rfingers
  end

#!OML:ASF F:\twosubjects\two\Thursday\Session 1\Rory.ASF
:FULLY-SPECIFIED
:DEGREES
16
root 9.12821 18.4783 -10.9723 2.52653 -8.73499 3.75165
lowerback 1.17933 0.435924 -5.93718
upperback 1.13369 0.539283 -1.50873
thorax 0.465663 0.235228 1.7705
lowerneck -9.51107 -1.51027 -1.00336
upperneck 23.6581 -3.6246 6.82582
head 9.12356 -1.09821 2.11717
rclavicle 1.12313e-014 -1.90833e-014
rhumerus -37.6044 -18.1246 -76.8709
rradius 27.7115
rwrist 24.1207
rhand -24.8873 24.985
rfingers 7.12502
rthumb 1.62039 -4.98859
lclavicle 1.12313e-014 -1.90833e-014
lhumerus -31.3615 16.5565 76.183
lradius 28.9128
lwrist -21.5002
lhand -14.2832 30.5115
lfingers 7.12502
lthumb 11.856 60.1559
rfemur -14.6422 0.810044 12.1536
rtibia 45.8702
rfoot -13.5391 -17.3138
rtoes -4.12881
lfemur -12.2988 1.41201 -23.5905
ltibia 13.7117
lfoot -3.58154 4.8901
ltoes 6.72691
17
root 9.12933 18.477 -10.9205 2.6487 -8.70314 3.8746
lowerback 0.647621 0.529371 -6.38675
upperback 1.45189 0.71847 -1.28108
thorax 1.07218 0.297145 2.26055
lowerneck -9.94237 -1.60975 -0.875207
upperneck 23.9619 -3.75175 6.5717
head 9.31052 -1.15602 1.99598
rclavicle -2.87741e-014 -1.37161e-014
rhumerus -36.9638 -18.4561 -76.7088
rradius 27.8276
rwrist 23.8153
rhand -24.4944 25.1827
rfingers 7.12502
rthumb 1.99985 -4.78765
lclavicle -2.87741e-014 -1.37161e-014
lhumerus -29.8002 16.9242 76.7491
lradius 28.3314
lwrist -21.7817
lhand -13.599 30.3854
lfingers 7.12502
lthumb 12.5157 59.9906
rfemur -15.1413 0.841161 12.0036
rtibia 44.7134
rfoot -13.2088 -17.533
rtoes -3.98697
lfemur -12.5862 1.61019 -23.8275
ltibia 14.3513
lfoot -4.47998 4.57415
ltoes 3.83821
18
root 9.12975 18.4751 -10.8671 2.67566 -8.55644 4.16359
lowerback 1.06712 0.646294 -6.1734
upperback 1.14849 0.827756 -1.7178
thorax 0.522729 0.376515 1.6857
lowerneck -9.89767 -1.69952 -0.157935
upperneck 24.6911 -4.05104 6.47765
head 9.56045 -1.22464 1.81711
rclavicle -5.61567e-015 -2.46493e-014
rhumerus -37.6365 -18.7955 -77.0647
rradius 28.2643
rwrist 23.2398
rhand -24.3525 24.611
rfingers 7.12502
rthumb 2.13695 -5.35809
lclavicle -5.61567e-015 -2.46493e-014
lhumerus -29.4853 16.3424 76.3881
lradius 28.4126
lwrist -21.8248
lhand -14.9012 29.8383
lfingers 7.12502
lthumb 11.2601 59.5161
rfemur -15.5042 0.838756 11.649
rtibia 43.4373
rfoot -13.4159 -17.454
rtoes -4.93819
lfemur -12.8765 1.9579 -24.2369
ltibia 15.0982
lfoot -4.99372 4.12304
ltoes 1.94929
19
root 9.12926 18.4654 -10.8124 2.48397 -8.56068 4.33345
lowerback 0.147388 0.837267 -7.07012
upperback 1.83061 1.19072 -1.10951
thorax 1.69024 0.49549 2.8298
lowerneck -10.0653 -1.8875 -0.686062
upperneck 24.637 -4.1463 6.25495
head 9.57937 -1.33637 1.81775
rclavicle -5.34234e-016 1.21259e-014
rhumerus -36.6878 -18.1771 -76.6832
rradius 28.4468
rwrist 22.4507
rhand -24.6446 24.1633
rfingers 7.12502
rthumb 1.8548 -5.80835
lclavicle -5.34234e-016 1.21259e-014
lhumerus -28.008 17.0097 77.7732
lradius 28.2941
lwrist -22.2027
lhand -15.455 29.2318
lfingers 7.12502
lthumb 10.7259 58.938
rfemur -15.515 1.05266 11.3871
rtibia 42.0025
rfoot -13.7047 -17.106
rtoes -7.29727
lfemur -12.8878 2.04576 -24.4292
ltibia 15.8006
lfoot -5.7092 4.11612
ltoes 3.14388
20
root 9.11966 18.4468 -10.759 2.35526 -8.58618 4.19387
lowerback 0.25659 0.9582 -6.8719
upperback 1.81787 1.33936 -1.05508
thorax 1.60278 0.575346 2.7745
lowerneck -10.0194 -1.91957 -0.810539
upperneck 25.123 -4.2625 6.49838
head 9.75721 -1.36531 1.91751
rclavicle -4.39811e-015 7.95139e-016
rhumerus -36.7411 -18.0234 -76.8208
rradius 28.3928
rwrist 22.4984
rhand -25.0514 24.6739
rfingers 7.12502
rthumb 1.46197 -5.30088
lclavicle -4.39811e-015 7.95139e-016
lhumerus -27.3461 16.829 77.9299
lradius 28.0562
lwrist -22.2162
lhand -14.4747 29.0171
lfingers 7.12502
lthumb 11.6714 58.6721
rfemur -15.4221 1.39831 11.5083
rtibia 40.3906
rfoot -13.3003 -16.8878
rtoes -10.0551
lfemur -12.9321 2.02119 -24.2212
ltibia 16.5395
lfoot -6.4004 4.26258
ltoes 4.92006
21
root 9.10497 18.4292 -10.7081 2.41281 -8.46219 3.98015
lowerback 1.24335 0.941046 -5.76363
upperback 1.0256 1.20347 -1.67268
thorax 0.275675 0.575032 1.49628
lowerneck -9.52693 -1.85804 -0.345772
upperneck 26.135 -4.48616 7.03745
head 10.0446 -1.35435 2.0199
rclavicle 3.91854e-014 -8.34896e-015
rhumerus -37.9756 -18.2523 -77.5565
rradius 28.4408
rwrist 22.6288
rhand -25.382 25.4585
rfingers 7.12502
rthumb 1.14263 -4.51818
lclavicle 3.91854e-014 -8.34896e-015
lhumerus -27.905 15.7035 76.7724
lradius 28.1551
lwrist -22.0612
lhand -14.2884 29.0845
lfingers 7.12502
lthumb 11.851 58.7292
rfemur -15.4284 1.84669 11.7011
rtibia 38.6172
rfoot -13.2305 -16.4261
rtoes -11.1726
lfemur -13.1862 2.15156 -23.9723
ltibia 17.3741
lfoot -6.86346 4.11628
ltoes 4.6182
22
root 9.09593 18.4294 -10.657 2.46007 -8.34039 3.92019
lowerback 0.379925 0.92483 -6.24176
upperback 1.39338 1.26322 -1.19085
thorax 1.11583 0.570207 2.27651
lowerneck -9.35578 -1.93778 -0.84949
upperneck 26.1633 -4.50386 7.07002
head 10.0311 -1.41003 2.11814
rclavicle 1.19271e-014 2.64384e-014
rhumerus -37.2273 -17.7103 -77.4173
rradius 28.4194
rwrist 22.2004
rhand -25.3444 25.4984
rfingers 7.12502
rthumb 1.17892 -4.47812
lclavicle 1.19271e-014 2.64384e-014
lhumerus -27.104 16.7381 77.4372
lradius 28.2362
lwrist -22.8682
lhand -14.802 29.0108
lfingers 7.12502
lthumb 11.3558 58.6833
rfemur -15.4222 2.39822 11.6423
rtibia 36.7532
rfoot -13.6718 -15.4644
rtoes -10.7121
lfemur -13.4164 2.48618 -23.9853
ltibia 18.1371
lfoot -7.04314 3.81395
ltoes 2.3397
23
root 9.08975 18.4348 -10.6058 2.43992 -8.19425 3.89209
lowerback -0.144385 0.888874 -6.46753
upperback 1.63063 1.2663 -0.870237
thorax 1.6445 0.546543 2.74463
lowerneck -9.30305 -1.9236 -0.961711
upperneck 26.3421 -4.40119 6.80261
head 10.0751 -1.39889 2.05786
rclavicle 6.36111e-015 -1.88845e-015
rhumerus -36.6796 -17.081 -77.4439
rradius 28.3979
rwrist 21.8618
rhand -25.1194 25.3571
rfingers 7.12502
rthumb 1.39625 -4.61811
lclavicle 6.36111e-015 -1.88845e-015
lhumerus -26.5405 17.6592 77.9467
lradius 28.478
lwrist -22.6672
lhand -14.2844 29.3983
lfingers 7.12502
lthumb 11.8548 59.0427
rfemur -15.3352 2.85516 11.5254
rtibia 34.9241
rfoot -13.5508 -14.3803
rtoes -8.84702
lfemur -13.4997 2.63235 -23.9997
ltibia 18.7213
lfoot -7.27388 3.60387
ltoes 1.1607
24
root 9.08199 18.4334 -10.5601 2.34434 -7.98584 3.85222
lowerback 0.58986 0.765311 -5.64916
upperback 1.16374 1.02464 -1.27938
thorax 0.791601 0.470324 1.8497
lowerneck -9.01889 -1.69367 -0.632247
upperneck 27.1384 -4.24986 6.98317
head 10.3036 -1.2662 2.09767
rclavicle 7.93896e-015 -4.47266e-014
rhumerus -37.2491 -16.6616 -78.2173
rradius 28.4324
rwrist 21.8118
rhand -25.1773 25.5734
rfingers 7.12502
rthumb 1.34031 -4.40218
lclavicle 7.93896e-015 -4.47266e-014
lhumerus -26.9129 17.1182 77.2623
lradius 28.7777
lwrist -21.6351
lhand -14.4034 29.5336
lfingers 7.12502
lthumb 11.7401 59.1846
rfemur -15.1521 3.23734 11.4571
rtibia 33.203
rfoot -13.0041 -13.45
rtoes -4.18423
lfemur -13.4619 2.61289 -23.9392
ltibia 19.198
lfoot -7.74974 3.42647
ltoes 1.4403
